<svg style="fill-rule:evenodd;clip-rule:evenodd;stroke-linecap:square;" xmlns="http://www.w3.org/2000/svg" viewBox="0 0 1300 175" height="100%" width="100%">
    <g transform="matrix(1.15,0,0,1.15,-40.58,-73.24)">
        <g transform="matrix(1,0,0,1,26.34,191.5)">
            <g transform="matrix(1.44,0,0,1,0,0)">
                <g>
                    <path style="fill:rgb(26,26,26);" d="M15.7 -30.96Q16.27 -24.05 18.79 -19.22Q21.31 -14.4 25.27 -11.38Q29.23 -8.35 34.42 -6.98Q39.6 -5.62 45.5 -5.62Q52.42 -5.62 57.46 -7.34Q62.5 -9.07 65.66 -12.02Q68.83 -14.98 70.34 -18.86Q71.86 -22.75 71.86 -27.07Q71.86 -33.12 69.12 -36.86Q66.38 -40.61 61.99 -42.98Q57.6 -45.36 51.91 -46.8Q46.22 -48.24 40.25 -49.61Q34.27 -50.98 28.58 -52.85Q22.9 -54.72 18.5 -57.89Q14.11 -61.06 11.38 -66.02Q8.64 -70.99 8.64 -78.62Q8.64 -83.95 10.87 -88.99Q13.1 -94.03 17.5 -97.92Q21.89 -101.81 28.51 -104.11Q35.14 -106.42 43.78 -106.42Q52.56 -106.42 59.11 -103.97Q65.66 -101.52 69.98 -97.27Q74.3 -93.02 76.46 -87.41Q78.62 -81.79 78.62 -75.46H69.26Q69.26 -81.36 67.18 -85.68Q65.09 -90.0 61.49 -92.74Q57.89 -95.47 53.28 -96.77Q48.67 -98.06 43.78 -98.06Q36.29 -98.06 31.18 -95.98Q26.06 -93.89 23.04 -90.58Q20.02 -87.26 18.86 -83.23Q17.71 -79.2 18.43 -75.17Q19.3 -70.13 22.46 -67.1Q25.63 -64.08 30.24 -62.14Q34.85 -60.19 40.39 -58.97Q45.94 -57.74 51.7 -56.38Q57.46 -55.01 62.86 -53.14Q68.26 -51.26 72.43 -48.1Q76.61 -44.93 79.13 -39.96Q81.65 -34.99 81.65 -27.5Q81.65 -13.1 71.71 -5.18Q61.78 2.74 43.78 2.74Q35.71 2.74 28.8 0.65Q21.89 -1.44 16.85 -5.69Q11.81 -9.94 9.0 -16.2Q6.19 -22.46 6.19 -30.96Z"></path>
                    <g transform="matrix(1,0,0,1,80.06,0)">
                        <path style="fill:rgb(26,26,26);" d="M11.66 0.0V-103.68H80.64V-95.33H21.46V-57.89H74.88V-49.54H21.46V-8.35H82.08V0.0Z M101.52 -90.43H101.23V0.0H91.44V-103.68H102.53L162.43 -13.1H162.72V-103.68H172.51V0.0H161.14Z M191.81 -30.96Q192.38 -24.05 194.9 -19.22Q197.42 -14.4 201.38 -11.38Q205.34 -8.35 210.53 -6.98Q215.71 -5.62 221.62 -5.62Q228.53 -5.62 233.57 -7.34Q238.61 -9.07 241.78 -12.02Q244.94 -14.98 246.46 -18.86Q247.97 -22.75 247.97 -27.07Q247.97 -33.12 245.23 -36.86Q242.5 -40.61 238.1 -42.98Q233.71 -45.36 228.02 -46.8Q222.34 -48.24 216.36 -49.61Q210.38 -50.98 204.7 -52.85Q199.01 -54.72 194.62 -57.89Q190.22 -61.06 187.49 -66.02Q184.75 -70.99 184.75 -78.62Q184.75 -83.95 186.98 -88.99Q189.22 -94.03 193.61 -97.92Q198.0 -101.81 204.62 -104.11Q211.25 -106.42 219.89 -106.42Q228.67 -106.42 235.22 -103.97Q241.78 -101.52 246.1 -97.27Q250.42 -93.02 252.58 -87.41Q254.74 -81.79 254.74 -75.46H245.38Q245.38 -81.36 243.29 -85.68Q241.2 -90.0 237.6 -92.74Q234.0 -95.47 229.39 -96.77Q224.78 -98.06 219.89 -98.06Q212.4 -98.06 207.29 -95.98Q202.18 -93.89 199.15 -90.58Q196.13 -87.26 194.98 -83.23Q193.82 -79.2 194.54 -75.17Q195.41 -70.13 198.58 -67.1Q201.74 -64.08 206.35 -62.14Q210.96 -60.19 216.5 -58.97Q222.05 -57.74 227.81 -56.38Q233.57 -55.01 238.97 -53.14Q244.37 -51.26 248.54 -48.1Q252.72 -44.93 255.24 -39.96Q257.76 -34.99 257.76 -27.5Q257.76 -13.1 247.82 -5.18Q237.89 2.74 219.89 2.74Q211.82 2.74 204.91 0.65Q198.0 -1.44 192.96 -5.69Q187.92 -9.94 185.11 -16.2Q182.3 -22.46 182.3 -30.96Z M267.84 0.0V-103.68H336.82V-95.33H277.63V-57.89H331.06V-49.54H277.63V-8.35H338.26V0.0Z M347.9 0.0V-103.68H357.7V-8.35H413.28V0.0Z M420.05 0.0V-103.68H489.02V-95.33H429.84V-57.89H483.26V-49.54H429.84V-8.35H490.46V0.0Z M504.14 -30.96Q504.72 -24.05 507.24 -19.22Q509.76 -14.4 513.72 -11.38Q517.68 -8.35 522.86 -6.98Q528.05 -5.62 533.95 -5.62Q540.86 -5.62 545.9 -7.34Q550.94 -9.07 554.11 -12.02Q557.28 -14.98 558.79 -18.86Q560.3 -22.75 560.3 -27.07Q560.3 -33.12 557.57 -36.86Q554.83 -40.61 550.44 -42.98Q546.05 -45.36 540.36 -46.8Q534.67 -48.24 528.7 -49.61Q522.72 -50.98 517.03 -52.85Q511.34 -54.72 506.95 -57.89Q502.56 -61.06 499.82 -66.02Q497.09 -70.99 497.09 -78.62Q497.09 -83.95 499.32 -88.99Q501.55 -94.03 505.94 -97.92Q510.34 -101.81 516.96 -104.11Q523.58 -106.42 532.22 -106.42Q541.01 -106.42 547.56 -103.97Q554.11 -101.52 558.43 -97.27Q562.75 -93.02 564.91 -87.41Q567.07 -81.79 567.07 -75.46H557.71Q557.71 -81.36 555.62 -85.68Q553.54 -90.0 549.94 -92.74Q546.34 -95.47 541.73 -96.77Q537.12 -98.06 532.22 -98.06Q524.74 -98.06 519.62 -95.98Q514.51 -93.89 511.49 -90.58Q508.46 -87.26 507.31 -83.23Q506.16 -79.2 506.88 -75.17Q507.74 -70.13 510.91 -67.1Q514.08 -64.08 518.69 -62.14Q523.3 -60.19 528.84 -58.97Q534.38 -57.74 540.14 -56.38Q545.9 -55.01 551.3 -53.14Q556.7 -51.26 560.88 -48.1Q565.06 -44.93 567.58 -39.96Q570.1 -34.99 570.1 -27.5Q570.1 -13.1 560.16 -5.18Q550.22 2.74 532.22 2.74Q524.16 2.74 517.25 0.65Q510.34 -1.44 505.3 -5.69Q500.26 -9.94 497.45 -16.2Q494.64 -22.46 494.64 -30.96Z M584.21 -30.96Q584.78 -24.05 587.3 -19.22Q589.82 -14.4 593.78 -11.38Q597.74 -8.35 602.93 -6.98Q608.11 -5.62 614.02 -5.62Q620.93 -5.62 625.97 -7.34Q631.01 -9.07 634.18 -12.02Q637.34 -14.98 638.86 -18.86Q640.37 -22.75 640.37 -27.07Q640.37 -33.12 637.63 -36.86Q634.9 -40.61 630.5 -42.98Q626.11 -45.36 620.42 -46.8Q614.74 -48.24 608.76 -49.61Q602.78 -50.98 597.1 -52.85Q591.41 -54.72 587.02 -57.89Q582.62 -61.06 579.89 -66.02Q577.15 -70.99 577.15 -78.62Q577.15 -83.95 579.38 -88.99Q581.62 -94.03 586.01 -97.92Q590.4 -101.81 597.02 -104.11Q603.65 -106.42 612.29 -106.42Q621.07 -106.42 627.62 -103.97Q634.18 -101.52 638.5 -97.27Q642.82 -93.02 644.98 -87.41Q647.14 -81.79 647.14 -75.46H637.78Q637.78 -81.36 635.69 -85.68Q633.6 -90.0 630.0 -92.74Q626.4 -95.47 621.79 -96.77Q617.18 -98.06 612.29 -98.06Q604.8 -98.06 599.69 -95.98Q594.58 -93.89 591.55 -90.58Q588.53 -87.26 587.38 -83.23Q586.22 -79.2 586.94 -75.17Q587.81 -70.13 590.98 -67.1Q594.14 -64.08 598.75 -62.14Q603.36 -60.19 608.9 -58.97Q614.45 -57.74 620.21 -56.38Q625.97 -55.01 631.37 -53.14Q636.77 -51.26 640.94 -48.1Q645.12 -44.93 647.64 -39.96Q650.16 -34.99 650.16 -27.5Q650.16 -13.1 640.22 -5.18Q630.29 2.74 612.29 2.74Q604.22 2.74 597.31 0.65Q590.4 -1.44 585.36 -5.69Q580.32 -9.94 577.51 -16.2Q574.7 -22.46 574.7 -30.96Z"></path>
                    </g>
                </g>
            </g>
        </g>
        <g transform="matrix(-3.24,0,0,-3.24,1129.07,139.66)">
            <path style="fill:none;fill-rule:nonzero;stroke:rgb(152,74,232);stroke-width:3.5px;" d="M0,-11L0,11"></path>
        </g>
        <g transform="matrix(-3.24,0,0,-3.24,1129.07,139.66)">
            <path style="fill:none;fill-rule:nonzero;stroke:rgb(152,74,232);stroke-width:3.5px;" d="M-11,0L11,0"></path>
        </g>
        <g transform="matrix(-3.24,0,0,-3.24,1129.07,139.66)">
            <path style="fill:none;fill-rule:nonzero;stroke:rgb(152,74,232);stroke-width:3.5px;" d="M-7.8,-7.8L7.8,7.8"></path>
        </g>
        <g transform="matrix(-3.24,0,0,-3.24,1129.07,139.66)">
            <path style="fill:none;fill-rule:nonzero;stroke:rgb(152,74,232);stroke-width:3.5px;" d="M-7.8,7.8L7.8,-7.8"></path>
        </g>
    </g>
</svg>
